<svg width="1024" height="1024" viewBox="0 0 1024 1024" fill="none" xmlns="http://www.w3.org/2000/svg">
  <rect width="1024" height="1024" rx="240" fill="url(#bg)"/>
  <circle cx="512" cy="512" r="250" fill="url(#ring)" opacity="0.18"/>
  <circle cx="512" cy="512" r="198" fill="#0F172A" stroke="rgba(255,255,255,0.12)" stroke-width="18"/>
  <path d="M388 630C388 562.621 442.621 508 510 508H590C631.974 508 666 542.026 666 584V610C666 680.692 608.692 738 538 738H510C442.621 738 388 683.379 388 616V630Z" fill="url(#accent)"/>
  <rect x="470" y="266" width="108" height="332" rx="54" fill="#F8FAFC"/>
  <rect x="430" y="724" width="188" height="38" rx="19" fill="#CBD5E1"/>
  <path d="M328 484C328 598.875 421.125 692 536 692" stroke="#F8FAFC" stroke-width="34" stroke-linecap="round"/>
  <path d="M694 484C694 578.992 617.992 656 523 656" stroke="#7DD3FC" stroke-width="22" stroke-linecap="round" opacity="0.9"/>
  <path d="M748 392C748 517.921 645.921 620 520 620" stroke="#C084FC" stroke-width="18" stroke-linecap="round" opacity="0.8"/>
  <defs>
    <linearGradient id="bg" x1="112" y1="64" x2="901" y2="955" gradientUnits="userSpaceOnUse">
      <stop stop-color="#020617"/>
      <stop offset="0.52" stop-color="#0F172A"/>
      <stop offset="1" stop-color="#1D4ED8"/>
    </linearGradient>
    <linearGradient id="ring" x1="262" y1="256" x2="764" y2="764" gradientUnits="userSpaceOnUse">
      <stop stop-color="#38BDF8"/>
      <stop offset="1" stop-color="#C084FC"/>
    </linearGradient>
    <linearGradient id="accent" x1="410" y1="530" x2="654" y2="730" gradientUnits="userSpaceOnUse">
      <stop stop-color="#38BDF8"/>
      <stop offset="1" stop-color="#A855F7"/>
    </linearGradient>
  </defs>
</svg>
