<svg width="1080" height="1920" viewBox="0 0 1080 1920" fill="none" xmlns="http://www.w3.org/2000/svg">
  <rect width="1080" height="1920" fill="url(#bg)"/>
  <text x="84" y="180" fill="#F8FAFC" font-family="Arial, sans-serif" font-size="82" font-weight="700">Tune every detail</text>
  <text x="84" y="254" fill="#BFDBFE" font-family="Arial, sans-serif" font-size="40">Use EQ, ambience, and immersive sound tools</text>
  <rect x="120" y="356" width="840" height="1320" rx="56" fill="#020617" stroke="rgba(255,255,255,0.12)" stroke-width="8"/>
  <rect x="180" y="456" width="720" height="260" rx="32" fill="#111827"/>
  <rect x="214" y="534" width="28" height="120" rx="14" fill="#38BDF8"/>
  <rect x="286" y="494" width="28" height="160" rx="14" fill="#38BDF8"/>
  <rect x="358" y="458" width="28" height="196" rx="14" fill="#A855F7"/>
  <rect x="430" y="520" width="28" height="134" rx="14" fill="#38BDF8"/>
  <rect x="502" y="472" width="28" height="182" rx="14" fill="#A855F7"/>
  <rect x="574" y="546" width="28" height="108" rx="14" fill="#38BDF8"/>
  <rect x="646" y="506" width="28" height="148" rx="14" fill="#A855F7"/>
  <rect x="718" y="470" width="28" height="184" rx="14" fill="#38BDF8"/>
  <rect x="790" y="522" width="28" height="132" rx="14" fill="#A855F7"/>
  <rect x="180" y="778" width="720" height="200" rx="30" fill="#111827"/>
  <rect x="180" y="1020" width="720" height="200" rx="30" fill="#111827"/>
  <rect x="180" y="1262" width="720" height="200" rx="30" fill="#111827"/>
  <text x="222" y="882" fill="#F8FAFC" font-family="Arial, sans-serif" font-size="40" font-weight="700">Equalizer presets</text>
  <text x="222" y="1124" fill="#F8FAFC" font-family="Arial, sans-serif" font-size="40" font-weight="700">Rain, fire, city ambience</text>
  <text x="222" y="1366" fill="#F8FAFC" font-family="Arial, sans-serif" font-size="40" font-weight="700">8D and spatial motion effects</text>
  <defs>
    <linearGradient id="bg" x1="0" y1="0" x2="1080" y2="1920" gradientUnits="userSpaceOnUse">
      <stop stop-color="#020617"/>
      <stop offset="1" stop-color="#312E81"/>
    </linearGradient>
  </defs>
</svg>
