<svg width="1080" height="1920" viewBox="0 0 1080 1920" fill="none" xmlns="http://www.w3.org/2000/svg">
  <rect width="1080" height="1920" fill="url(#bg)"/>
  <text x="84" y="180" fill="#F8FAFC" font-family="Arial, sans-serif" font-size="82" font-weight="700">A premium radio feel</text>
  <text x="84" y="254" fill="#BFDBFE" font-family="Arial, sans-serif" font-size="40">Immersive visualizers make music feel alive</text>
  <rect x="120" y="356" width="840" height="1320" rx="56" fill="#020617" stroke="rgba(255,255,255,0.12)" stroke-width="8"/>
  <circle cx="540" cy="920" r="210" fill="url(#ring1)" opacity="0.5"/>
  <circle cx="540" cy="920" r="148" fill="url(#ring2)" opacity="0.85"/>
  <circle cx="540" cy="920" r="70" fill="#F8FAFC"/>
  <path d="M210 1140C286 980 376 1040 444 1180C521 1337 613 1340 724 1080C781 947 839 901 888 977" stroke="#38BDF8" stroke-width="12" stroke-linecap="round"/>
  <path d="M210 1240C286 1080 376 1140 444 1280C521 1437 613 1440 724 1180C781 1047 839 1001 888 1077" stroke="#A855F7" stroke-width="12" stroke-linecap="round"/>
  <defs>
    <linearGradient id="bg" x1="0" y1="0" x2="1080" y2="1920" gradientUnits="userSpaceOnUse">
      <stop stop-color="#0F172A"/>
      <stop offset="1" stop-color="#020617"/>
    </linearGradient>
    <radialGradient id="ring1" cx="0" cy="0" r="1" gradientUnits="userSpaceOnUse" gradientTransform="translate(540 920) rotate(90) scale(210)">
      <stop stop-color="#38BDF8"/>
      <stop offset="1" stop-color="#38BDF8" stop-opacity="0"/>
    </radialGradient>
    <radialGradient id="ring2" cx="0" cy="0" r="1" gradientUnits="userSpaceOnUse" gradientTransform="translate(540 920) rotate(90) scale(148)">
      <stop stop-color="#A855F7"/>
      <stop offset="1" stop-color="#A855F7" stop-opacity="0.1"/>
    </radialGradient>
  </defs>
</svg>
